<?xml version="1.0" encoding="UTF-8"?>
<svg id="Calque_2" data-name="Calque 2" xmlns="http://www.w3.org/2000/svg" viewBox="0 0 199.41 227.67">
  <defs>
    <style>
      .cls-1 {
        fill: #282b2a;
      }

      .cls-2 {
        fill: #f9d643;
      }
    </style>
  </defs>
  <g id="Calque_1-2" data-name="Calque 1">
    <g>
      <g>
        <path class="cls-1" d="m122.45,25.71c-.93.65-1.85,1.33-2.77,2.03-.04.03-.08.06-.12.09-.65.5-1.31,1-1.95,1.51-.89.7-1.76,1.4-2.63,2.11l-9.04-5.27c-2.05-1.2-4.36-1.8-6.67-1.8s-4.54.58-6.57,1.74l-7.07,4.04c-.31-1.02-.67-2.03-1.07-3.02-.3-.76-.62-1.5-.97-2.23-.45-.95-.94-1.88-1.46-2.79l6.25-3.57c6.79-3.88,15.2-3.84,21.96.1l12.11,7.07Z"/>
        <path class="cls-1" d="m43.85,154.48c-.65.83-1.27,1.68-1.87,2.55-.46.67-.89,1.36-1.3,2.05-.55.9-1.06,1.81-1.54,2.75l-9.19-5.36c-6.75-3.94-10.93-11.25-10.89-19.07v-.09c1.04.27,2.09.48,3.15.63.81.13,1.62.22,2.44.29,1.05.09,2.11.13,3.16.13.29,4.36,2.73,8.36,6.54,10.58l9.51,5.55Z"/>
        <path class="cls-1" d="m141.13,172.17l-13.44,7.68-2.55,1.46-2.58,1.47-2.26,1.29-2.61,1.49-2.67,1.53-5.46,3.12c-3.37,1.92-7.13,2.88-10.89,2.88s-7.66-.99-11.06-2.98l-38.28-22.32c.46-.94.96-1.87,1.5-2.77.42-.69.86-1.37,1.32-2.03.61-.87,1.25-1.7,1.94-2.51l37.9,22.11c4.07,2.37,9.14,2.4,13.24.06l10.7-6.12,2.47-1.4,2.44-1.39,2.41-1.38,2.48-1.41,2.48-1.42,8.36-4.77c.51.92,1.03,1.83,1.57,2.73.42.7.84,1.39,1.27,2.07.56.89,1.13,1.77,1.71,2.64Z"/>
        <path class="cls-1" d="m178.57,67.48c-.92.9-1.87,1.77-2.86,2.61-.77.67-1.57,1.31-2.38,1.94-1.03.81-2.09,1.59-3.16,2.35v-3.08c.03-4.71-2.48-9.12-6.55-11.49l-36.42-21.24c.92-.68,1.85-1.36,2.78-2.02.73-.52,1.46-1.03,2.19-1.53.46-.32.93-.63,1.39-.94.51-.34,1.03-.68,1.53-1l32.92,19.21c5.62,3.28,9.46,8.9,10.56,15.2Z"/>
        <path class="cls-1" d="m178.85,82.44l-.1,22.47v2.45s-.02,2.46-.02,2.46v3.42s-.02,2.51-.02,2.51v2.53s-.1,19.83-.1,19.83c-.03,7.82-4.27,15.09-11.06,18.97l-15.87,9.07c-.63-.86-1.24-1.72-1.83-2.58-.46-.67-.91-1.35-1.34-2.02-.57-.89-1.12-1.78-1.65-2.68l16.36-9.35c4.09-2.34,6.65-6.72,6.67-11.44l.1-21.32v-2.41s.02-2.43.02-2.43v-2.79s.02-2.44.02-2.44v-2.4s.08-15.8.08-15.8c1.05-.7,2.11-1.4,3.16-2.12.81-.55,1.62-1.1,2.43-1.67,1.06-.74,2.11-1.49,3.16-2.25Z"/>
        <path class="cls-1" d="m75.42,35.99l-15.18,8.67-2.19,1.25-2.14,1.22-2.06,1.18-2.16,1.24-2.14,1.22-14.81,8.46c-4.09,2.34-6.65,6.72-6.67,11.44l-.02,5.62v2.6s-.02,2.61-.02,2.61v1.92s-.02,2.63-.02,2.63v2.65s-.18,37.61-.18,37.61c-3.24-.07-6.2-.69-8.71-1.81l.14-30.49v-3.07s.03-2.96.03-2.96v-2.31s.02-2.75.02-2.75h0s0-2.75,0-2.75l.04-9.55c.03-7.82,4.27-15.09,11.06-18.97l14.13-8.08,2.11-1.2,2.11-1.2,2.2-1.26,2.11-1.21,2.11-1.2,16.11-9.2c.76.77,1.42,1.6,1.99,2.49.44.69.82,1.4,1.14,2.14.43.98.77,2,1.01,3.05Z"/>
      </g>
      <g>
        <path class="cls-2" d="m77.7,63.22h0c.15-.2.3-.41.44-.61-.15.2-.3.41-.45.61Zm0,0h0c.15-.2.3-.41.44-.61-.15.2-.3.41-.45.61Zm0,0h0c.15-.2.3-.41.44-.61-.15.2-.3.41-.45.61Zm0,0h0c.15-.2.3-.41.44-.61-.15.2-.3.41-.45.61Zm0,0h0c.15-.2.3-.41.44-.61-.15.2-.3.41-.45.61Zm0,0h0c.15-.2.3-.41.44-.61-.15.2-.3.41-.45.61Zm0,0h0c.15-.2.3-.41.44-.61-.15.2-.3.41-.45.61Zm0,0h0c.15-.2.3-.41.44-.61-.15.2-.3.41-.45.61Zm0,0h0c.15-.2.3-.41.44-.61-.15.2-.3.41-.45.61Zm0,0h0c.15-.2.3-.41.44-.61-.15.2-.3.41-.45.61Zm0,0h0c.15-.2.3-.41.44-.61-.15.2-.3.41-.45.61Zm0,0h0c.15-.2.3-.41.44-.61-.15.2-.3.41-.45.61Zm0,0h0c.15-.2.3-.41.44-.61-.15.2-.3.41-.45.61Zm0,0h0c.15-.2.3-.41.44-.61-.15.2-.3.41-.45.61Zm0,0h0c.15-.2.3-.41.44-.61-.15.2-.3.41-.45.61Zm0,0h0c.15-.2.3-.41.44-.61-.15.2-.3.41-.45.61Zm0,0h0c.15-.2.3-.41.44-.61-.15.2-.3.41-.45.61Zm0,0h0c.15-.2.3-.41.44-.61-.15.2-.3.41-.45.61Zm0,0h0c.15-.2.3-.41.44-.61-.15.2-.3.41-.45.61Zm0,0h0c.15-.2.3-.41.44-.61-.15.2-.3.41-.45.61Zm0,0h0c.15-.2.3-.41.44-.61-.15.2-.3.41-.45.61Zm0,0h0c.15-.2.3-.41.44-.61-.15.2-.3.41-.45.61Zm0,0h0c.15-.2.3-.41.44-.61-.15.2-.3.41-.45.61Zm0,0h0c.15-.2.3-.41.44-.61-.15.2-.3.41-.45.61Zm0,0h0c.15-.2.3-.41.44-.61-.15.2-.3.41-.45.61Zm0,0h0c.15-.2.3-.41.44-.61-.15.2-.3.41-.45.61Zm0,0h0c.15-.2.3-.41.44-.61-.15.2-.3.41-.45.61Zm0,0h0c.15-.2.3-.41.44-.61-.15.2-.3.41-.45.61Zm0,0h0c.15-.2.3-.41.44-.61-.15.2-.3.41-.45.61Zm0,0h0c.15-.2.3-.41.44-.61-.15.2-.3.41-.45.61Zm0,0h0c.15-.2.3-.41.44-.61-.15.2-.3.41-.45.61Zm0,0h0c.15-.2.3-.41.44-.61-.15.2-.3.41-.45.61Zm0,0h0c.15-.2.3-.41.44-.61-.15.2-.3.41-.45.61Zm0,0h0c.15-.2.3-.41.44-.61-.15.2-.3.41-.45.61Zm0,0h0c.15-.2.3-.41.44-.61-.15.2-.3.41-.45.61Zm0,0h0c.15-.2.3-.41.44-.61-.15.2-.3.41-.45.61Zm0,0h0c.15-.2.3-.41.44-.61-.15.2-.3.41-.45.61Zm0,0h0c.15-.2.3-.41.44-.61-.15.2-.3.41-.45.61Zm0,0h0c.15-.2.3-.41.44-.61-.15.2-.3.41-.45.61Zm0,0h0c.15-.2.3-.41.44-.61-.15.2-.3.41-.45.61Zm0,0h0c.15-.2.3-.41.44-.61-.15.2-.3.41-.45.61Zm0,0h0c.15-.2.3-.41.44-.61-.15.2-.3.41-.45.61Zm0,0h0c.15-.2.3-.41.44-.61-.15.2-.3.41-.45.61Zm0,0h0c.15-.2.3-.41.44-.61-.15.2-.3.41-.45.61Zm0,0h0c.15-.2.3-.41.44-.61-.15.2-.3.41-.45.61Zm0,0h0c.15-.2.3-.41.44-.61-.15.2-.3.41-.45.61Zm0,0h0c.15-.2.3-.41.44-.61-.15.2-.3.41-.45.61Zm0,0h0c.15-.2.3-.41.44-.61-.15.2-.3.41-.45.61Zm0,0h0c.15-.2.3-.41.44-.61-.15.2-.3.41-.45.61Zm0,0h0c.15-.2.3-.41.44-.61-.15.2-.3.41-.45.61Zm0,0h0c.15-.2.3-.41.44-.61-.15.2-.3.41-.45.61Zm0,0h0c.15-.2.3-.41.44-.61-.15.2-.3.41-.45.61Zm0,0h0c.15-.2.3-.41.44-.61-.15.2-.3.41-.45.61Zm0,0h0c.15-.2.3-.41.44-.61-.15.2-.3.41-.45.61Zm0,0h0c.15-.2.3-.41.44-.61-.15.2-.3.41-.45.61Zm0,0h0c.15-.2.3-.41.44-.61-.15.2-.3.41-.45.61Zm0,0h0c.15-.2.3-.41.44-.61-.15.2-.3.41-.45.61Zm0,0h0c.15-.2.3-.41.44-.61-.15.2-.3.41-.45.61Zm0,0h0c.15-.2.3-.41.44-.61-.15.2-.3.41-.45.61Zm0,0h0c.15-.2.3-.41.44-.61-.15.2-.3.41-.45.61Zm0,0h0c.15-.2.3-.41.44-.61-.15.2-.3.41-.45.61Zm0,0h0c.15-.2.3-.41.44-.61-.15.2-.3.41-.45.61Zm0,0h0c.15-.2.3-.41.44-.61-.15.2-.3.41-.45.61Zm0,0h0c.15-.2.3-.41.44-.61-.15.2-.3.41-.45.61Zm0,0h0c.15-.2.3-.41.44-.61-.15.2-.3.41-.45.61Zm0,0h0c.15-.2.3-.41.44-.61-.15.2-.3.41-.45.61Zm0,0h0c.15-.2.3-.41.44-.61-.15.2-.3.41-.45.61Zm0,0h0c.15-.2.3-.41.44-.61-.15.2-.3.41-.45.61Zm0,0h0c.15-.2.3-.41.44-.61-.15.2-.3.41-.45.61Zm0,0h0c.15-.2.3-.41.44-.61-.15.2-.3.41-.45.61Zm0,0h0c.15-.2.3-.41.44-.61-.15.2-.3.41-.45.61Zm0,0h0c.15-.2.3-.41.44-.61-.15.2-.3.41-.45.61Zm0,0h0c.15-.2.3-.41.44-.61-.15.2-.3.41-.45.61Zm0,0h0c.15-.2.3-.41.44-.61-.15.2-.3.41-.45.61Zm0,0h0c.15-.2.3-.41.44-.61-.15.2-.3.41-.45.61Zm0,0h0c.15-.2.3-.41.44-.61-.15.2-.3.41-.45.61Zm0,0h0c.15-.2.3-.41.44-.61-.15.2-.3.41-.45.61Zm0,0h0c.15-.2.3-.41.44-.61-.15.2-.3.41-.45.61Zm0,0h0c.15-.2.3-.41.44-.61-.15.2-.3.41-.45.61Zm0,0h0c.15-.2.3-.41.44-.61-.15.2-.3.41-.45.61Zm0,0h0c.15-.2.3-.41.44-.61-.15.2-.3.41-.45.61Zm0,0h0c.15-.2.3-.41.44-.61-.15.2-.3.41-.45.61Zm0,0h0c.15-.2.3-.41.44-.61-.15.2-.3.41-.45.61Zm0,0h0c.15-.2.3-.41.44-.61-.15.2-.3.41-.45.61Zm0,0h0c.15-.2.3-.41.44-.61-.15.2-.3.41-.45.61Zm0,0h0c.15-.2.3-.41.44-.61-.15.2-.3.41-.45.61Zm0,0h0c.15-.2.3-.41.44-.61-.15.2-.3.41-.45.61Zm0,0h0c.15-.2.3-.41.44-.61-.15.2-.3.41-.45.61Zm0,0h0c.15-.2.3-.41.44-.61-.15.2-.3.41-.45.61Zm0,0h0c.15-.2.3-.41.44-.61-.15.2-.3.41-.45.61Zm0,0h0c.15-.2.3-.41.44-.61-.15.2-.3.41-.45.61Zm0,0h0c.15-.2.3-.41.44-.61-.15.2-.3.41-.45.61Zm0,0h0c.15-.2.3-.41.44-.61-.15.2-.3.41-.45.61Zm0,0h0c.15-.2.3-.41.44-.61-.15.2-.3.41-.45.61Zm0,0h0c.15-.2.3-.41.44-.61-.15.2-.3.41-.45.61Zm0,0h0c.15-.2.3-.41.44-.61-.15.2-.3.41-.45.61Zm0,0h0c.15-.2.3-.41.44-.61-.15.2-.3.41-.45.61Zm0,0h0c.15-.2.3-.41.44-.61-.15.2-.3.41-.45.61Zm0,0h0c.15-.2.3-.41.44-.61-.15.2-.3.41-.45.61Zm0,0h0c.15-.2.3-.41.44-.61-.15.2-.3.41-.45.61Zm0,0h0c.15-.2.3-.41.44-.61-.15.2-.3.41-.45.61Zm0,0h0c.15-.2.3-.41.44-.61-.15.2-.3.41-.45.61Zm0,0h0c.15-.2.3-.41.44-.61-.15.2-.3.41-.45.61Zm0,0h0c.15-.2.3-.41.44-.61-.15.2-.3.41-.45.61Zm0,0h0c.15-.2.3-.41.44-.61-.15.2-.3.41-.45.61Zm0,0h0c.15-.2.3-.41.44-.61-.15.2-.3.41-.45.61Zm0,0h0c.15-.2.3-.41.44-.61-.15.2-.3.41-.45.61Zm0,0h0c.15-.2.3-.41.44-.61-.15.2-.3.41-.45.61Zm0,0h0c.15-.2.3-.41.44-.61-.15.2-.3.41-.45.61Zm0,0h0c.15-.2.3-.41.44-.61-.15.2-.3.41-.45.61Zm0,0h0c.15-.2.3-.41.44-.61-.15.2-.3.41-.45.61Zm0,0h0c.15-.2.3-.41.44-.61-.15.2-.3.41-.45.61Zm0,0h0c.15-.2.3-.41.44-.61-.15.2-.3.41-.45.61Zm0,0h0c.15-.2.3-.41.44-.61-.15.2-.3.41-.45.61Zm0,0h0c.15-.2.3-.41.44-.61-.15.2-.3.41-.45.61Zm0,0h0c.15-.2.3-.41.44-.61-.15.2-.3.41-.45.61Zm0,0h0c.15-.2.3-.41.44-.61-.15.2-.3.41-.45.61Zm0,0h0c.15-.2.3-.41.44-.61-.15.2-.3.41-.45.61Zm0,0h0c.15-.2.3-.41.44-.61-.15.2-.3.41-.45.61Zm0,0h0c.15-.2.3-.41.44-.61-.15.2-.3.41-.45.61Zm0,0h0c.15-.2.3-.41.44-.61-.15.2-.3.41-.45.61Zm0,0h0c.15-.2.3-.41.44-.61-.15.2-.3.41-.45.61Zm0,0h0c.15-.2.3-.41.44-.61-.15.2-.3.41-.45.61Zm0,0h0c.15-.2.3-.41.44-.61-.15.2-.3.41-.45.61Zm0,0h0c.15-.2.3-.41.44-.61-.15.2-.3.41-.45.61Zm0,0h0c.15-.2.3-.41.44-.61-.15.2-.3.41-.45.61Zm0,0h0c.15-.2.3-.41.44-.61-.15.2-.3.41-.45.61Zm0,0h0c.15-.2.3-.41.44-.61-.15.2-.3.41-.45.61Zm0,0h0c.15-.2.3-.41.44-.61-.15.2-.3.41-.45.61Zm0,0h0c.15-.2.3-.41.44-.61-.15.2-.3.41-.45.61Zm0,0h0c.15-.2.3-.41.44-.61-.15.2-.3.41-.45.61Zm0,0h0c.15-.2.3-.41.44-.61-.15.2-.3.41-.45.61Zm0,0h0c.15-.2.3-.41.44-.61-.15.2-.3.41-.45.61Zm0,0h0c.15-.2.3-.41.44-.61-.15.2-.3.41-.45.61Zm0,0h0c.15-.2.3-.41.44-.61-.15.2-.3.41-.45.61Zm0,0h0c.15-.2.3-.41.44-.61-.15.2-.3.41-.45.61Zm0,0h0c.15-.2.3-.41.44-.61-.15.2-.3.41-.45.61Zm0,0h0c.15-.2.3-.41.44-.61-.15.2-.3.41-.45.61Zm0,0h0c.15-.2.3-.41.44-.61-.15.2-.3.41-.45.61Zm0,0h0c.15-.2.3-.41.44-.61-.15.2-.3.41-.45.61Zm0,0h0c.15-.2.3-.41.44-.61-.15.2-.3.41-.45.61Zm0,0h0c.15-.2.3-.41.44-.61-.15.2-.3.41-.45.61Zm0,0h0c.15-.2.3-.41.44-.61-.15.2-.3.41-.45.61Zm0,0h0c.15-.2.3-.41.44-.61-.15.2-.3.41-.45.61Zm0,0h0c.15-.2.3-.41.44-.61-.15.2-.3.41-.45.61Zm0,0h0c.15-.2.3-.41.44-.61-.15.2-.3.41-.45.61Zm0,0h0c.15-.2.3-.41.44-.61-.15.2-.3.41-.45.61Zm0,0h0c.15-.2.3-.41.44-.61-.15.2-.3.41-.45.61Zm0,0h0c.15-.2.3-.41.44-.61-.15.2-.3.41-.45.61Zm0,0h0c.15-.2.3-.41.44-.61-.15.2-.3.41-.45.61Zm0,0h0c.15-.2.3-.41.44-.61-.15.2-.3.41-.45.61Zm0,0h0c.15-.2.3-.41.44-.61-.15.2-.3.41-.45.61Zm0,0h0c.15-.2.3-.41.44-.61-.15.2-.3.41-.45.61Zm0,0h0c.15-.2.3-.41.44-.61-.15.2-.3.41-.45.61Zm0,0h0c.15-.2.3-.41.44-.61-.15.2-.3.41-.45.61Zm0,0h0c.15-.2.3-.41.44-.61-.15.2-.3.41-.45.61Zm0,0h0c.15-.2.3-.41.44-.61-.15.2-.3.41-.45.61Zm0,0h0c.15-.2.3-.41.44-.61-.15.2-.3.41-.45.61Zm0,0h0c.15-.2.3-.41.44-.61-.15.2-.3.41-.45.61Zm0,0h0c.15-.2.3-.41.44-.61-.15.2-.3.41-.45.61Zm0,0h0c.15-.2.3-.41.44-.61-.15.2-.3.41-.45.61Zm0,0h0c.15-.2.3-.41.44-.61-.15.2-.3.41-.45.61Zm0,0h0c.15-.2.3-.41.44-.61-.15.2-.3.41-.45.61Zm0,0h0c.15-.2.3-.41.44-.61-.15.2-.3.41-.45.61Zm0,0h0c.15-.2.3-.41.44-.61-.15.2-.3.41-.45.61Zm0,0h0c.15-.2.3-.41.44-.61-.15.2-.3.41-.45.61Zm0,0h0c.15-.2.3-.41.44-.61-.15.2-.3.41-.45.61Zm0,0h0c.15-.2.3-.41.44-.61-.15.2-.3.41-.45.61Zm0,0h0c.15-.2.3-.41.44-.61-.15.2-.3.41-.45.61Zm0,0h0c.15-.2.3-.41.44-.61-.15.2-.3.41-.45.61Zm0,0h0c.15-.2.3-.41.44-.61-.15.2-.3.41-.45.61Zm0,0h0c.15-.2.3-.41.44-.61-.15.2-.3.41-.45.61Zm0,0h0c.15-.2.3-.41.44-.61-.15.2-.3.41-.45.61Zm0,0h0c.15-.2.3-.41.44-.61-.15.2-.3.41-.45.61Zm0,0h0c.15-.2.3-.41.44-.61-.15.2-.3.41-.45.61Zm0,0h0c.15-.2.3-.41.44-.61-.15.2-.3.41-.45.61Zm0,0h0c.15-.2.3-.41.44-.61-.15.2-.3.41-.45.61Zm0,0h0c.15-.2.3-.41.44-.61-.15.2-.3.41-.45.61Zm0,0h0c.15-.2.3-.41.44-.61-.15.2-.3.41-.45.61Zm0,0h0c.15-.2.3-.41.44-.61-.15.2-.3.41-.45.61Zm0,0h0c.15-.2.3-.41.44-.61-.15.2-.3.41-.45.61Zm0,0h0c.15-.2.3-.41.44-.61-.15.2-.3.41-.45.61Zm0,0h0c.15-.2.3-.41.44-.61-.15.2-.3.41-.45.61Zm0,0h0c.15-.2.3-.41.44-.61-.15.2-.3.41-.45.61Zm0,0h0c.15-.2.3-.41.44-.61-.15.2-.3.41-.45.61Zm0,0h0c.15-.2.3-.41.44-.61-.15.2-.3.41-.45.61Zm0,0h0c.15-.2.3-.41.44-.61-.15.2-.3.41-.45.61Zm0,0h0c.15-.2.3-.41.44-.61-.15.2-.3.41-.45.61Zm0,0h0c.15-.2.3-.41.44-.61-.15.2-.3.41-.45.61Zm0,0h0c.15-.2.3-.41.44-.61-.15.2-.3.41-.45.61Zm0,0h0c.15-.2.3-.41.44-.61-.15.2-.3.41-.45.61Zm0,0h0c.15-.2.3-.41.44-.61-.15.2-.3.41-.45.61Zm0,0h0c.15-.2.3-.41.44-.61-.15.2-.3.41-.45.61Zm0,0h0c.15-.2.3-.41.44-.61-.15.2-.3.41-.45.61Zm0,0h0c.15-.2.3-.41.44-.61-.15.2-.3.41-.45.61Zm0,0h0c.15-.2.3-.41.44-.61-.15.2-.3.41-.45.61Zm0,0h0c.15-.2.3-.41.44-.61-.15.2-.3.41-.45.61Zm0,0h0c.15-.2.3-.41.44-.61-.15.2-.3.41-.45.61Zm0,0h0c.15-.2.3-.41.44-.61-.15.2-.3.41-.45.61Zm0,0h0c.15-.2.3-.41.44-.61-.15.2-.3.41-.45.61Zm0,0h0c.15-.2.3-.41.44-.61-.15.2-.3.41-.45.61Zm0,0h0c.15-.2.3-.41.44-.61-.15.2-.3.41-.45.61Zm0,0h0c.15-.2.3-.41.44-.61-.15.2-.3.41-.45.61Zm0,0h0c.15-.2.3-.41.44-.61-.15.2-.3.41-.45.61Zm0,0h0c.15-.2.3-.41.44-.61-.15.2-.3.41-.45.61Zm0,0h0c.15-.2.3-.41.44-.61-.15.2-.3.41-.45.61Zm0,0h0c.15-.2.3-.41.44-.61-.15.2-.3.41-.45.61Zm0,0h0c.15-.2.3-.41.44-.61-.15.2-.3.41-.45.61Zm0,0h0c.15-.2.3-.41.44-.61-.15.2-.3.41-.45.61Zm0,0h0c.15-.2.3-.41.44-.61-.15.2-.3.41-.45.61Zm0,0h0c.15-.2.3-.41.44-.61-.15.2-.3.41-.45.61Zm0,0h0c.15-.2.3-.41.44-.61-.15.2-.3.41-.45.61Zm0,0h0c.15-.2.3-.41.44-.61-.15.2-.3.41-.45.61Zm0,0h0c.15-.2.3-.41.44-.61-.15.2-.3.41-.45.61Zm0,0h0c.15-.2.3-.41.44-.61-.15.2-.3.41-.45.61Zm0,0h0c.15-.2.3-.41.44-.61-.15.2-.3.41-.45.61Zm0,0h0c.15-.2.3-.41.44-.61-.15.2-.3.41-.45.61Zm0,0h0c.15-.2.3-.41.44-.61-.15.2-.3.41-.45.61Zm0,0h0c.15-.2.3-.41.44-.61-.15.2-.3.41-.45.61Zm0,0h0c.15-.2.3-.41.44-.61-.15.2-.3.41-.45.61Zm0,0h0c.15-.2.3-.41.44-.61-.15.2-.3.41-.45.61Zm0,0h0c.15-.2.3-.41.44-.61-.15.2-.3.41-.45.61Zm0,0h0c.15-.2.3-.41.44-.61-.15.2-.3.41-.45.61Zm0,0h0c.15-.2.3-.41.44-.61-.15.2-.3.41-.45.61Zm0,0h0c.15-.2.3-.41.44-.61-.15.2-.3.41-.45.61Zm0,0h0c.15-.2.3-.41.44-.61-.15.2-.3.41-.45.61Zm0,0h0c.15-.2.3-.41.44-.61-.15.2-.3.41-.45.61Zm0,0h0c.15-.2.3-.41.44-.61-.15.2-.3.41-.45.61Zm0,0h0c.15-.2.3-.41.44-.61-.15.2-.3.41-.45.61Zm0,0h0c.15-.2.3-.41.44-.61-.15.2-.3.41-.45.61Zm0,0h0c.15-.2.3-.41.44-.61-.15.2-.3.41-.45.61Zm0,0h0c.15-.2.3-.41.44-.61-.15.2-.3.41-.45.61Zm0,0h0c.15-.2.3-.41.44-.61-.15.2-.3.41-.45.61Zm0,0h0c.15-.2.3-.41.44-.61-.15.2-.3.41-.45.61Zm0,0h0c.15-.2.3-.41.44-.61-.15.2-.3.41-.45.61Zm0,0h0c.15-.2.3-.41.44-.61-.15.2-.3.41-.45.61Zm0,0h0c.15-.2.3-.41.44-.61-.15.2-.3.41-.45.61Zm0,0h0c.15-.2.3-.41.44-.61-.15.2-.3.41-.45.61Zm0,0h0c.15-.2.3-.41.44-.61-.15.2-.3.41-.45.61Zm0,0h0c.15-.2.3-.41.44-.61-.15.2-.3.41-.45.61Zm0,0h0c.15-.2.3-.41.44-.61-.15.2-.3.41-.45.61Zm0,0h0c.15-.2.3-.41.44-.61-.15.2-.3.41-.45.61Zm0,0h0c.15-.2.3-.41.44-.61-.15.2-.3.41-.45.61Zm0,0h0c.15-.2.3-.41.44-.61-.15.2-.3.41-.45.61Zm0,0h0c.15-.2.3-.41.44-.61-.15.2-.3.41-.45.61Zm0,0h0c.15-.2.3-.41.44-.61-.15.2-.3.41-.45.61Zm0,0h0c.15-.2.3-.41.44-.61-.15.2-.3.41-.45.61Zm0,0h0c.15-.2.3-.41.44-.61-.15.2-.3.41-.45.61Zm0,0h0c.15-.2.3-.41.44-.61-.15.2-.3.41-.45.61Zm0,0h0c.15-.2.3-.41.44-.61-.15.2-.3.41-.45.61Zm0,0h0c.15-.2.3-.41.44-.61-.15.2-.3.41-.45.61Zm0,0h0c.15-.2.3-.41.44-.61-.15.2-.3.41-.45.61Zm0,0h0c.15-.2.3-.41.44-.61-.15.2-.3.41-.45.61Zm0,0h0c.15-.2.3-.41.44-.61-.15.2-.3.41-.45.61Zm0,0h0c.15-.2.3-.41.44-.61-.15.2-.3.41-.45.61Zm0,0h0c.15-.2.3-.41.44-.61-.15.2-.3.41-.45.61Zm0,0h0c.15-.2.3-.41.44-.61-.15.2-.3.41-.45.61Zm0,0h0c.15-.2.3-.41.44-.61-.15.2-.3.41-.45.61Zm0,0h0c.15-.2.3-.41.44-.61-.15.2-.3.41-.45.61Zm0,0h0c.15-.2.3-.41.44-.61-.15.2-.3.41-.45.61Zm0,0h0c.15-.2.3-.41.44-.61-.15.2-.3.41-.45.61Zm0,0h0c.15-.2.3-.41.44-.61-.15.2-.3.41-.45.61Zm0,0h0c.15-.2.3-.41.44-.61-.15.2-.3.41-.45.61Zm0,0h0c.15-.2.3-.41.44-.61-.15.2-.3.41-.45.61Zm0,0h0c.15-.2.3-.41.44-.61-.15.2-.3.41-.45.61Zm0,0h0c.15-.2.3-.41.44-.61-.15.2-.3.41-.45.61Zm0,0h0c.15-.2.3-.41.44-.61-.15.2-.3.41-.45.61Zm0,0h0c.15-.2.3-.41.44-.61-.15.2-.3.41-.45.61Zm0,0h0c.15-.2.3-.41.44-.61-.15.2-.3.41-.45.61Zm0,0h0c.15-.2.3-.41.44-.61-.15.2-.3.41-.45.61Zm0,0h0c.15-.2.3-.41.44-.61-.15.2-.3.41-.45.61Zm0,0h0c.15-.2.3-.41.44-.61-.15.2-.3.41-.45.61Zm0,0h0c.15-.2.3-.41.44-.61-.15.2-.3.41-.45.61Zm0,0h0c.15-.2.3-.41.44-.61-.15.2-.3.41-.45.61Zm0,0h0c.15-.2.3-.41.44-.61-.15.2-.3.41-.45.61Zm0,0h0c.15-.2.3-.41.44-.61-.15.2-.3.41-.45.61Zm0,0h0c.15-.2.3-.41.44-.61-.15.2-.3.41-.45.61Zm0,0h0c.15-.2.3-.41.44-.61-.15.2-.3.41-.45.61Zm0,0h0c.15-.2.3-.41.44-.61-.15.2-.3.41-.45.61Zm0,0h0c.15-.2.3-.41.44-.61-.15.2-.3.41-.45.61Zm0,0h0c.15-.2.3-.41.44-.61-.15.2-.3.41-.45.61Zm0,0h0c.15-.2.3-.41.44-.61-.15.2-.3.41-.45.61Zm0,0h0c.15-.2.3-.41.44-.61-.15.2-.3.41-.45.61Zm0,0h0c.15-.2.3-.41.44-.61-.15.2-.3.41-.45.61Zm0,0h0c.15-.2.3-.41.44-.61-.15.2-.3.41-.45.61Zm0,0h0c.15-.2.3-.41.44-.61-.15.2-.3.41-.45.61Zm0,0h0c.15-.2.3-.41.44-.61-.15.2-.3.41-.45.61Zm0,0h0c.15-.2.3-.41.44-.61-.15.2-.3.41-.45.61Zm0,0h0c.15-.2.3-.41.44-.61-.15.2-.3.41-.45.61Zm0,0h0c.15-.2.3-.41.44-.61-.15.2-.3.41-.45.61Zm0,0h0c.15-.2.3-.41.44-.61-.15.2-.3.41-.45.61Zm0,0h0c.15-.2.3-.41.44-.61-.15.2-.3.41-.45.61Zm0,0h0c.15-.2.3-.41.44-.61-.15.2-.3.41-.45.61Zm0,0h0c.15-.2.3-.41.44-.61-.15.2-.3.41-.45.61Zm0,0h0c.15-.2.3-.41.44-.61-.15.2-.3.41-.45.61Zm0,0h0c.15-.2.3-.41.44-.61-.15.2-.3.41-.45.61Zm0,0h0c.15-.2.3-.41.44-.61-.15.2-.3.41-.45.61Zm0,0h0c.15-.2.3-.41.44-.61-.15.2-.3.41-.45.61Zm0,0h0c.15-.2.3-.41.44-.61-.15.2-.3.41-.45.61Zm0,0h0c.15-.2.3-.41.44-.61-.15.2-.3.41-.45.61Zm0,0h0c.15-.2.3-.41.44-.61-.15.2-.3.41-.45.61Zm0,0h0c.15-.2.3-.41.44-.61-.15.2-.3.41-.45.61Zm0,0h0c.15-.2.3-.41.44-.61-.15.2-.3.41-.45.61Zm0,0h0c.15-.2.3-.41.44-.61-.15.2-.3.41-.45.61Zm0,0h0c.15-.2.3-.41.44-.61-.15.2-.3.41-.45.61Zm0,0h0c.15-.2.3-.41.44-.61-.15.2-.3.41-.45.61Zm0,0h0c.15-.2.3-.41.44-.61-.15.2-.3.41-.45.61Zm0,0h0c.15-.2.3-.41.44-.61-.15.2-.3.41-.45.61Zm0,0h0c.15-.2.3-.41.44-.61-.15.2-.3.41-.45.61Zm0,0h0c.15-.2.3-.41.44-.61-.15.2-.3.41-.45.61Zm0,0h0c.15-.2.3-.41.44-.61-.15.2-.3.41-.45.61Zm0,0h0c.15-.2.3-.41.44-.61-.15.2-.3.41-.45.61Zm0,0h0c.15-.2.3-.41.44-.61-.15.2-.3.41-.45.61Zm0,0h0c.15-.2.3-.41.44-.61-.15.2-.3.41-.45.61Zm0,0h0c.15-.2.3-.41.44-.61-.15.2-.3.41-.45.61Zm0,0h0c.15-.2.3-.41.44-.61-.15.2-.3.41-.45.61Zm0,0h0c.15-.2.3-.41.44-.61-.15.2-.3.41-.45.61Zm0,0h0c.15-.2.3-.41.44-.61-.15.2-.3.41-.45.61Zm0,0h0c.15-.2.3-.41.44-.61-.15.2-.3.41-.45.61Zm0,0h0c.15-.2.3-.41.44-.61-.15.2-.3.41-.45.61Zm0,0h0c.15-.2.3-.41.44-.61-.15.2-.3.41-.45.61Zm0,0h0c.15-.2.3-.41.44-.61-.15.2-.3.41-.45.61Zm0,0h0c.15-.2.3-.41.44-.61-.15.2-.3.41-.45.61Zm0,0h0c.15-.2.3-.41.44-.61-.15.2-.3.41-.45.61Zm0,0h0c.15-.2.3-.41.44-.61-.15.2-.3.41-.45.61Zm0,0h0c.15-.2.3-.41.44-.61-.15.2-.3.41-.45.61Zm0,0h0c.15-.2.3-.41.44-.61-.15.2-.3.41-.45.61Zm0,0h0c.15-.2.3-.41.44-.61-.15.2-.3.41-.45.61Zm0,0h0c.15-.2.3-.41.44-.61-.15.2-.3.41-.45.61Zm0,0h0c.15-.2.3-.41.44-.61-.15.2-.3.41-.45.61Zm0,0h0c.15-.2.3-.41.44-.61-.15.2-.3.41-.45.61Zm0,0h0c.15-.2.3-.41.44-.61-.15.2-.3.41-.45.61Zm0,0h0c.15-.2.3-.41.44-.61-.15.2-.3.41-.45.61Zm0,0h0c.15-.2.3-.41.44-.61-.15.2-.3.41-.45.61Zm0,0h0c.15-.2.3-.41.44-.61-.15.2-.3.41-.45.61Zm0,0h0c.15-.2.3-.41.44-.61-.15.2-.3.41-.45.61Zm0,0h0c.15-.2.3-.41.44-.61-.15.2-.3.41-.45.61Zm0,0h0c.15-.2.3-.41.44-.61-.15.2-.3.41-.45.61Zm0,0h0c.15-.2.3-.41.44-.61-.15.2-.3.41-.45.61Zm0,0h0c.15-.2.3-.41.44-.61-.15.2-.3.41-.45.61Zm0,0h0c.15-.2.3-.41.44-.61-.15.2-.3.41-.45.61Zm0,0h0c.15-.2.3-.41.44-.61-.15.2-.3.41-.45.61Zm0,0h0c.15-.2.3-.41.44-.61-.15.2-.3.41-.45.61Zm0,0h0c.15-.2.3-.41.44-.61-.15.2-.3.41-.45.61Zm0,0h0c.15-.2.3-.41.44-.61-.15.2-.3.41-.45.61Zm0,0h0c.15-.2.3-.41.44-.61-.15.2-.3.41-.45.61Zm0,0h0c.15-.2.3-.41.44-.61-.15.2-.3.41-.45.61Zm0,0h0c.15-.2.3-.41.44-.61-.15.2-.3.41-.45.61Zm0,0h0c.15-.2.3-.41.44-.61-.15.2-.3.41-.45.61Zm0,0h0c.15-.2.3-.41.44-.61-.15.2-.3.41-.45.61Zm0,0h0c.15-.2.3-.41.44-.61-.15.2-.3.41-.45.61Zm0,0h0c.15-.2.3-.41.44-.61-.15.2-.3.41-.45.61Zm0,0h0c.15-.2.3-.41.44-.61-.15.2-.3.41-.45.61Zm0,0h0c.15-.2.3-.41.44-.61-.15.2-.3.41-.45.61Zm0,0h0c.15-.2.3-.41.44-.61-.15.2-.3.41-.45.61Zm0,0h0c.15-.2.3-.41.44-.61-.15.2-.3.41-.45.61Zm0,0h0c.15-.2.3-.41.44-.61-.15.2-.3.41-.45.61Zm0,0h0c.15-.2.3-.41.44-.61-.15.2-.3.41-.45.61Zm0,0h0c.15-.2.3-.41.44-.61-.15.2-.3.41-.45.61Zm0,0h0c.15-.2.3-.41.44-.61-.15.2-.3.41-.45.61Zm0,0h0c.15-.2.3-.41.44-.61-.15.2-.3.41-.45.61Zm0,0h0c.15-.2.3-.41.44-.61-.15.2-.3.41-.45.61Zm0,0h0c.15-.2.3-.41.44-.61-.15.2-.3.41-.45.61Zm0,0h0c.15-.2.3-.41.44-.61-.15.2-.3.41-.45.61Zm0,0h0c.15-.2.3-.41.44-.61-.15.2-.3.41-.45.61Zm0,0h0c.15-.2.3-.41.44-.61-.15.2-.3.41-.45.61Zm0,0h0c.15-.2.3-.41.44-.61-.15.2-.3.41-.45.61Zm0,0h0c.15-.2.3-.41.44-.61-.15.2-.3.41-.45.61Zm0,0h0c.15-.2.3-.41.44-.61-.15.2-.3.41-.45.61Zm0,0h0c.15-.2.3-.41.44-.61-.15.2-.3.41-.45.61Zm0,0h0c.15-.2.3-.41.44-.61-.15.2-.3.41-.45.61Zm0,0h0c.15-.2.3-.41.44-.61-.15.2-.3.41-.45.61Zm0,0h0c.15-.2.3-.41.44-.61-.15.2-.3.41-.45.61Zm0,0h0c.15-.2.3-.41.44-.61-.15.2-.3.41-.45.61Zm0,0h0c.15-.2.3-.41.44-.61-.15.2-.3.41-.45.61Zm0,0h0c.15-.2.3-.41.44-.61-.15.2-.3.41-.45.61Zm0,0h0c.15-.2.3-.41.44-.61-.15.2-.3.41-.45.61Zm0,0h0c.15-.2.3-.41.44-.61-.15.2-.3.41-.45.61Zm0,0h0c.15-.2.3-.41.44-.61-.15.2-.3.41-.45.61Zm0,0h0c.15-.2.3-.41.44-.61-.15.2-.3.41-.45.61Zm0,0h0c.15-.2.3-.41.44-.61-.15.2-.3.41-.45.61Zm0,0h0c.15-.2.3-.41.44-.61-.15.2-.3.41-.45.61Zm0,0h0c.15-.2.3-.41.44-.61-.15.2-.3.41-.45.61Zm0,0h0c.15-.2.3-.41.44-.61-.15.2-.3.41-.45.61Zm0,0h0c.15-.2.3-.41.44-.61-.15.2-.3.41-.45.61Zm0,0h0c.15-.2.3-.41.44-.61-.15.2-.3.41-.45.61Zm0,0h0c.15-.2.3-.41.44-.61-.15.2-.3.41-.45.61Zm0,0h0c.15-.2.3-.41.44-.61-.15.2-.3.41-.45.61Zm0,0h0c.15-.2.3-.41.44-.61-.15.2-.3.41-.45.61Zm0,0h0c.15-.2.3-.41.44-.61-.15.2-.3.41-.45.61Zm0,0h0c.15-.2.3-.41.44-.61-.15.2-.3.41-.45.61Zm0,0h0c.15-.2.3-.41.44-.61-.15.2-.3.41-.45.61Zm0,0h0c.15-.2.3-.41.44-.61-.15.2-.3.41-.45.61Zm0,0h0c.15-.2.3-.41.44-.61-.15.2-.3.41-.45.61Zm0,0h0c.15-.2.3-.41.44-.61-.15.2-.3.41-.45.61Zm0,0h0c.15-.2.3-.41.44-.61-.15.2-.3.41-.45.61Zm0,0h0c.15-.2.3-.41.44-.61-.15.2-.3.41-.45.61Zm0,0h0c.15-.2.3-.41.44-.61-.15.2-.3.41-.45.61Zm0,0h0c.15-.2.3-.41.44-.61-.15.2-.3.41-.45.61Zm0,0h0c.15-.2.3-.41.44-.61-.15.2-.3.41-.45.61Zm0,0h0c.15-.2.3-.41.44-.61-.15.2-.3.41-.45.61Zm0,0h0c.15-.2.3-.41.44-.61-.15.2-.3.41-.45.61Zm0,0h0c.15-.2.3-.41.44-.61-.15.2-.3.41-.45.61Zm0,0h0c.15-.2.3-.41.44-.61-.15.2-.3.41-.45.61Zm0,0h0c.15-.2.3-.41.44-.61-.15.2-.3.41-.45.61Zm0,0h0c.15-.2.3-.41.44-.61-.15.2-.3.41-.45.61Zm0,0h0c.15-.2.3-.41.44-.61-.15.2-.3.41-.45.61Zm0,0h0c.15-.2.3-.41.44-.61-.15.2-.3.41-.45.61Zm0,0h0c.15-.2.3-.41.44-.61-.15.2-.3.41-.45.61Zm0,0h0c.15-.2.3-.41.44-.61-.15.2-.3.41-.45.61Zm0,0h0c.15-.2.3-.41.44-.61-.15.2-.3.41-.45.61Zm0,0h0c.15-.2.3-.41.44-.61-.15.2-.3.41-.45.61Zm0,0h0c.15-.2.3-.41.44-.61-.15.2-.3.41-.45.61Zm0,0h0c.15-.2.3-.41.44-.61-.15.2-.3.41-.45.61Zm0,0h0c.15-.2.3-.41.44-.61-.15.2-.3.41-.45.61Zm0,0h0c.15-.2.3-.41.44-.61-.15.2-.3.41-.45.61Zm0,0h0c.15-.2.3-.41.44-.61-.15.2-.3.41-.45.61Zm0,0h0c.15-.2.3-.41.44-.61-.15.2-.3.41-.45.61Zm0,0h0c.15-.2.3-.41.44-.61-.15.2-.3.41-.45.61Zm0,0h0c.15-.2.3-.41.44-.61-.15.2-.3.41-.45.61Zm0,0h0c.15-.2.3-.41.44-.61-.15.2-.3.41-.45.61Zm0,0h0c.15-.2.3-.41.44-.61-.15.2-.3.41-.45.61Zm0,0h0c.15-.2.3-.41.44-.61-.15.2-.3.41-.45.61Zm0,0h0c.15-.2.3-.41.44-.61-.15.2-.3.41-.45.61Zm0,0h0c.15-.2.3-.41.44-.61-.15.2-.3.41-.45.61Zm0,0h0c.15-.2.3-.41.44-.61-.15.2-.3.41-.45.61Zm0,0h0c.15-.2.3-.41.44-.61-.15.2-.3.41-.45.61Zm0,0h0c.15-.2.3-.41.44-.61-.15.2-.3.41-.45.61Zm0,0h0c.15-.2.3-.41.44-.61-.15.2-.3.41-.45.61Zm0,0h0c.15-.2.3-.41.44-.61-.15.2-.3.41-.45.61Zm0,0h0c.15-.2.3-.41.44-.61-.15.2-.3.41-.45.61Zm0,0h0c.15-.2.3-.41.44-.61-.15.2-.3.41-.45.61Zm0,0h0c.15-.2.3-.41.44-.61-.15.2-.3.41-.45.61Zm0,0h0c.15-.2.3-.41.44-.61-.15.2-.3.41-.45.61Zm0,0h0c.15-.2.3-.41.44-.61-.15.2-.3.41-.45.61Zm0,0h0c.15-.2.3-.41.44-.61-.15.2-.3.41-.45.61Zm0,0h0c.15-.2.3-.41.44-.61-.15.2-.3.41-.45.61Zm0,0h0c.15-.2.3-.41.44-.61-.15.2-.3.41-.45.61Zm0,0h0c.15-.2.3-.41.44-.61-.15.2-.3.41-.45.61Zm0,0h0c.15-.2.3-.41.44-.61-.15.2-.3.41-.45.61Zm0,0h0c.15-.2.3-.41.44-.61-.15.2-.3.41-.45.61Zm0,0h0c.15-.2.3-.41.44-.61-.15.2-.3.41-.45.61Zm0,0h0c.15-.2.3-.41.44-.61-.15.2-.3.41-.45.61Zm0,0h0c.15-.2.3-.41.44-.61-.15.2-.3.41-.45.61Zm0,0h0c.15-.2.3-.41.44-.61-.15.2-.3.41-.45.61Zm0,0h0c.15-.2.3-.41.44-.61-.15.2-.3.41-.45.61Zm0,0h0c.15-.2.3-.41.44-.61-.15.2-.3.41-.45.61Zm0,0h0c.15-.2.3-.41.44-.61-.15.2-.3.41-.45.61Zm0,0h0c.15-.2.3-.41.44-.61-.15.2-.3.41-.45.61Zm0,0h0c.15-.2.3-.41.44-.61-.15.2-.3.41-.45.61Zm0,0h0c.15-.2.3-.41.44-.61-.15.2-.3.41-.45.61Zm0,0h0c.15-.2.3-.41.44-.61-.15.2-.3.41-.45.61Zm0,0h0c.15-.2.3-.41.44-.61-.15.2-.3.41-.45.61Zm0,0h0c.15-.2.3-.41.44-.61-.15.2-.3.41-.45.61Zm0,0h0c.15-.2.3-.41.44-.61-.15.2-.3.41-.45.61Zm0,0h0c.15-.2.3-.41.44-.61-.15.2-.3.41-.45.61Zm0,0h0c.15-.2.3-.41.44-.61-.15.2-.3.41-.45.61Zm0,0h0c.15-.2.3-.41.44-.61-.15.2-.3.41-.45.61Zm0,0h0c.15-.2.3-.41.44-.61-.15.2-.3.41-.45.61Zm0,0h0c.15-.2.3-.41.44-.61-.15.2-.3.41-.45.61Zm0,0h0c.15-.2.3-.41.44-.61-.15.2-.3.41-.45.61Zm0,0h0c.15-.2.3-.41.44-.61-.15.2-.3.41-.45.61Zm0,0h0c.15-.2.3-.41.44-.61-.15.2-.3.41-.45.61Zm0,0h0c.15-.2.3-.41.44-.61-.15.2-.3.41-.45.61Zm0,0h0c.15-.2.3-.41.44-.61-.15.2-.3.41-.45.61Zm0,0h0c.15-.2.3-.41.44-.61-.15.2-.3.41-.45.61Zm0,0h0c.15-.2.3-.41.44-.61-.15.2-.3.41-.45.61Zm0,0h0c.15-.2.3-.41.44-.61-.15.2-.3.41-.45.61Zm0,0h0c.15-.2.3-.41.44-.61-.15.2-.3.41-.45.61Zm0,0h0c.15-.2.3-.41.44-.61-.15.2-.3.41-.45.61Zm0,0h0c.15-.2.3-.41.44-.61-.15.2-.3.41-.45.61Zm0,0h0c.15-.2.3-.41.44-.61-.15.2-.3.41-.45.61Zm0,0h0c.15-.2.3-.41.44-.61-.15.2-.3.41-.45.61Zm0,0h0c.15-.2.3-.41.44-.61-.15.2-.3.41-.45.61Zm0,0h0c.15-.2.3-.41.44-.61-.15.2-.3.41-.45.61Zm0,0h0c.15-.2.3-.41.44-.61-.15.2-.3.41-.45.61Zm0,0h0c.15-.2.3-.41.44-.61-.15.2-.3.41-.45.61Zm0,0h0c.15-.2.3-.41.44-.61-.15.2-.3.41-.45.61Zm0,0h0c.15-.2.3-.41.44-.61-.15.2-.3.41-.45.61Zm0,0h0c.15-.2.3-.41.44-.61-.15.2-.3.41-.45.61Zm0,0h0c.15-.2.3-.41.44-.61-.15.2-.3.41-.45.61Zm0,0h0c.15-.2.3-.41.44-.61-.15.2-.3.41-.45.61Zm0,0h0c.15-.2.3-.41.44-.61-.15.2-.3.41-.45.61Zm0,0h0c.15-.2.3-.41.44-.61-.15.2-.3.41-.45.61Zm0,0h0c.15-.2.3-.41.44-.61-.15.2-.3.41-.45.61Zm0,0h0c.15-.2.3-.41.44-.61-.15.2-.3.41-.45.61Zm0,0h0c.15-.2.3-.41.44-.61-.15.2-.3.41-.45.61Zm0,0h0c.15-.2.3-.41.44-.61-.15.2-.3.41-.45.61Zm0,0h0c.15-.2.3-.41.44-.61-.15.2-.3.41-.45.61Zm0,0h0c.15-.2.3-.41.44-.61-.15.2-.3.41-.45.61Zm0,0h0c.15-.2.3-.41.44-.61-.15.2-.3.41-.45.61Zm0,0h0c.15-.2.3-.41.44-.61-.15.2-.3.41-.45.61Zm0,0h0c.15-.2.3-.41.44-.61-.15.2-.3.41-.45.61Zm0,0h0c.15-.2.3-.41.44-.61-.15.2-.3.41-.45.61Zm0,0h0c.15-.2.3-.41.44-.61-.15.2-.3.41-.45.61Zm0,0h0c.15-.2.3-.41.44-.61-.15.2-.3.41-.45.61Zm0,0h0c.15-.2.3-.41.44-.61-.15.2-.3.41-.45.61Zm0,0h0c.15-.2.3-.41.44-.61-.15.2-.3.41-.45.61Zm0,0h0c.15-.2.3-.41.44-.61-.15.2-.3.41-.45.61Zm0,0h0c.15-.2.3-.41.44-.61-.15.2-.3.41-.45.61Zm0,0h0c.15-.2.3-.41.44-.61-.15.2-.3.41-.45.61Zm0,0h0c.15-.2.3-.41.44-.61-.15.2-.3.41-.45.61Zm0,0h0c.15-.2.3-.41.44-.61-.15.2-.3.41-.45.61Zm0,0h0c.15-.2.3-.41.44-.61-.15.2-.3.41-.45.61Zm0,0h0c.15-.2.3-.41.44-.61-.15.2-.3.41-.45.61Zm0,0h0c.15-.2.3-.41.44-.61-.15.2-.3.41-.45.61Zm0,0h0c.15-.2.3-.41.44-.61-.15.2-.3.41-.45.61Zm0,0h0c.15-.2.3-.41.44-.61-.15.2-.3.41-.45.61Zm0,0h0c.15-.2.3-.41.44-.61-.15.2-.3.41-.45.61Zm0,0h0c.15-.2.3-.41.44-.61-.15.2-.3.41-.45.61Zm0,0h0c.15-.2.3-.41.44-.61-.15.2-.3.41-.45.61Zm0,0h0c.15-.2.3-.41.44-.61-.15.2-.3.41-.45.61Zm0,0h0c.15-.2.3-.41.44-.61-.15.2-.3.41-.45.61Zm0,0h0c.15-.2.3-.41.44-.61-.15.2-.3.41-.45.61Zm0,0h0c.15-.2.3-.41.44-.61-.15.2-.3.41-.45.61Zm0,0h0c.15-.2.3-.41.44-.61-.15.2-.3.41-.45.61Zm0,0h0c.15-.2.3-.41.44-.61-.15.2-.3.41-.45.61Zm0,0h0c.15-.2.3-.41.44-.61-.15.2-.3.41-.45.61Zm0,0h0c.15-.2.3-.41.44-.61-.15.2-.3.41-.45.61Zm0,0h0c.15-.2.3-.41.44-.61-.15.2-.3.41-.45.61Zm0,0h0c.15-.2.3-.41.44-.61-.15.2-.3.41-.45.61Zm0,0h0c.15-.2.3-.41.44-.61-.15.2-.3.41-.45.61Zm0,0h0c.15-.2.3-.41.44-.61-.15.2-.3.41-.45.61Zm0,0h0c.15-.2.3-.41.44-.61-.15.2-.3.41-.45.61Zm0,0h0c.15-.2.3-.41.44-.61-.15.2-.3.41-.45.61Zm0,0h0c.15-.2.3-.41.44-.61-.15.2-.3.41-.45.61Zm0,0h0c.15-.2.3-.41.44-.61-.15.2-.3.41-.45.61Zm0,0h0c.15-.2.3-.41.44-.61-.15.2-.3.41-.45.61Zm0,0h0c.15-.2.3-.41.44-.61-.15.2-.3.41-.45.61Zm0,0h0c.15-.2.3-.41.44-.61-.15.2-.3.41-.45.61Zm0,0h0c.15-.2.3-.41.44-.61-.15.2-.3.41-.45.61Zm0,0h0c.15-.2.3-.41.44-.61-.15.2-.3.41-.45.61Zm0,0h0c.15-.2.3-.41.44-.61-.15.2-.3.41-.45.61Zm0,0h0c.15-.2.3-.41.44-.61-.15.2-.3.41-.45.61Zm0,0h0c.15-.2.3-.41.44-.61-.15.2-.3.41-.45.61Zm0,0h0c.15-.2.3-.41.44-.61-.15.2-.3.41-.45.61Zm0,0h0c.15-.2.3-.41.44-.61-.15.2-.3.41-.45.61Zm0,0h0c.15-.2.3-.41.44-.61-.15.2-.3.41-.45.61Zm0,0h0c.15-.2.3-.41.44-.61-.15.2-.3.41-.45.61Zm0,0h0c.15-.2.3-.41.44-.61-.15.2-.3.41-.45.61Zm0,0h0c.15-.2.3-.41.44-.61-.15.2-.3.41-.45.61Zm0,0h0c.15-.2.3-.41.44-.61-.15.2-.3.41-.45.61Zm0,0h0c.15-.2.3-.41.44-.61-.15.2-.3.41-.45.61Zm0,0h0c.15-.2.3-.41.44-.61-.15.2-.3.41-.45.61Zm0,0h0c.15-.2.3-.41.44-.61-.15.2-.3.41-.45.61Zm0,0h0c.15-.2.3-.41.44-.61-.15.2-.3.41-.45.61Zm0,0h0c.15-.2.3-.41.44-.61-.15.2-.3.41-.45.61Zm0,0h0c.15-.2.3-.41.44-.61-.15.2-.3.41-.45.61Zm0,0h0c.15-.2.3-.41.44-.61-.15.2-.3.41-.45.61Zm0,0h0c.15-.2.3-.41.44-.61-.15.2-.3.41-.45.61Zm0,0h0c.15-.2.3-.41.44-.61-.15.2-.3.41-.45.61Zm0,0h0c.15-.2.3-.41.44-.61-.15.2-.3.41-.45.61Zm0,0h0c.15-.2.3-.41.44-.61-.15.2-.3.41-.45.61Zm0,0h0c.15-.2.3-.41.44-.61-.15.2-.3.41-.45.61Zm0,0h0c.15-.2.3-.41.44-.61-.15.2-.3.41-.45.61Zm0,0h0c.15-.2.3-.41.44-.61-.15.2-.3.41-.45.61Zm0,0h0c.15-.2.3-.41.44-.61-.15.2-.3.41-.45.61Zm0,0h0c.15-.2.3-.41.44-.61-.15.2-.3.41-.45.61Zm0,0h0c.15-.2.3-.41.44-.61-.15.2-.3.41-.45.61Zm0,0h0c.15-.2.3-.41.44-.61-.15.2-.3.41-.45.61Zm0,0h0c.15-.2.3-.41.44-.61-.15.2-.3.41-.45.61Zm0,0h0c.15-.2.3-.41.44-.61-.15.2-.3.41-.45.61Zm0,0h0c.15-.2.3-.41.44-.61-.15.2-.3.41-.45.61Zm0,0h0c.15-.2.3-.41.44-.61-.15.2-.3.41-.45.61Zm0,0h0c.15-.2.3-.41.44-.61-.15.2-.3.41-.45.61Zm0,0h0c.15-.2.3-.41.44-.61-.15.2-.3.41-.45.61Zm0,0h0c.15-.2.3-.41.44-.61-.15.2-.3.41-.45.61Zm0,0h0c.15-.2.3-.41.44-.61-.15.2-.3.41-.45.61Zm0,0h0c.15-.2.3-.41.44-.61-.15.2-.3.41-.45.61Zm0,0h0c.15-.2.3-.41.44-.61-.15.2-.3.41-.45.61Zm0,0h0c.15-.2.3-.41.44-.61-.15.2-.3.41-.45.61Zm0,0h0c.15-.2.3-.41.44-.61-.15.2-.3.41-.45.61Zm0,0h0c.15-.2.3-.41.44-.61-.15.2-.3.41-.45.61Z"/>
        <path class="cls-2" d="m167.41,195.89c-2.36,1.06-4.86-1.03-6.6-2.95-5.56-6.18-11.01-12.57-15.8-19.37-.61-.86-1.2-1.73-1.79-2.61-.58-.87-1.15-1.75-1.71-2.64-.43-.68-.86-1.37-1.27-2.07-.54-.9-1.06-1.81-1.57-2.73-.51-.92-1.01-1.85-1.48-2.78-1.6-3.11-3.01-6.32-4.19-9.63-.74-2.07-1.38-4.19-1.91-6.34.43-1.52.93-3.02,1.52-4.49.46-1.14.96-2.26,1.53-3.37,0,0,0,0,0,0,.64-1.25,1.36-2.46,2.15-3.61.33,7.06,2.23,14.14,5.2,20.56.54,1.17,1.12,2.32,1.72,3.45.49.93,1,1.85,1.54,2.75.53.91,1.08,1.8,1.65,2.68.44.68.88,1.36,1.34,2.03.6.87,1.2,1.73,1.82,2.58.62.85,1.25,1.7,1.91,2.53,4.36,5.65,9.3,10.92,14.31,16.01,1.4,1.43,2.86,2.92,3.45,4.83.59,1.91,0,4.34-1.82,5.17Z"/>
        <path class="cls-2" d="m199.4,46.97c-.23,10.36-6.31,19.81-13.88,26.89-1.13,1.06-2.3,2.08-3.5,3.06-1.04.86-2.09,1.69-3.16,2.49-1.04.78-2.1,1.55-3.16,2.31-.8.57-1.61,1.13-2.43,1.69-1.05.72-2.1,1.43-3.16,2.14-1.05.7-2.11,1.4-3.16,2.11-2.19,1.47-4.38,2.94-6.53,4.47-8.03,5.7-15.74,12.45-20.15,21.22-1.34.91-2.64,1.87-3.9,2.91-1.23,1.01-2.42,2.07-3.56,3.2-1.07,1.04-2.09,2.14-3.07,3.27.96-7.2,3.43-14.1,7.7-20.02,5.77-8.02,14.25-13.61,22.62-18.85,2.31-1.45,4.64-2.9,6.94-4.39,1.06-.69,2.12-1.39,3.16-2.11,1.07-.73,2.12-1.48,3.16-2.26.82-.61,1.63-1.24,2.43-1.87,1.08-.87,2.13-1.77,3.14-2.7,1-.92,1.97-1.87,2.89-2.87.56-.6,1.1-1.21,1.63-1.84,6.35-7.57,10.12-18.1,7.07-27.49-3.51-10.79-15.32-17.33-26.67-17.48-9.96-.13-19.5,3.76-28.07,8.97-1.01.62-2.01,1.25-2.99,1.9-.18.12-.35.23-.53.35-.79.53-1.57,1.07-2.35,1.61-.73.5-1.45,1.02-2.17,1.54-.93.67-1.85,1.35-2.77,2.03-.92.68-1.83,1.37-2.74,2.05-5.77,4.36-11.47,8.82-17.64,12.58-6.78,4.14-14.36,7.44-22.15,8.53-.99.14-1.99.24-2.99.31-.98.06-1.96.09-2.94.07-1.33-.02-2.66-.11-4-.29-.06,0-.12,0-.17-.02-.91-.12-1.81-.29-2.71-.49-.93-.2-1.85-.45-2.75-.75-4.74-1.5-9.14-4.06-12.83-7.41l2.21-1.26,2.06-1.18,2.22-1.26c3.3,2.66,7.22,4.55,11.38,5.37.13.03.26.05.39.08.75.14,1.49.24,2.24.31.92.09,1.83.13,2.74.13.97,0,1.95-.05,2.92-.16.91-.09,1.82-.22,2.72-.39.93-.17,1.85-.38,2.77-.62,4.65-1.24,9.13-3.37,13.2-5.93,5.6-3.52,10.65-7.82,15.75-12.05.86-.71,1.73-1.42,2.6-2.13.88-.71,1.75-1.41,2.64-2.1.39-.31.77-.61,1.16-.9.31-.23.62-.47.93-.69.92-.69,1.85-1.36,2.79-2.01.96-.66,1.93-1.32,2.91-1.95,7.13-4.59,14.88-8.21,23.14-10,10.9-2.35,22.78-1.29,32.38,4.39,9.59,5.68,16.47,16.33,16.22,27.47Z"/>
        <path class="cls-2" d="m55.2,12.84c-4.5,6.61-5.7,15.32-3.28,22.92l-2.15,1.23-2.3,1.32-2.13,1.21c-3.45-8.61-2.9-18.1.59-26.63.81-2.01,4.19-10.13,7.65-12.34,1.74-1.11,3.5-.72,4.96,2.73,1.38,3.25-1.35,6.63-3.34,9.56Z"/>
      </g>
      <g>
        <path class="cls-2" d="m156.33,116.11c.62-.19,1.24-.36,1.87-.52-.63.16-1.25.33-1.87.52Zm8.33-1.63c.73-.07,1.45-.11,2.18-.14-.73.02-1.45.07-2.18.14Z"/>
        <path class="cls-2" d="m190.07,114.2c-.25,2.02-2.41,3.33-4.44,3.41-.1,0-.19,0-.29,0-.16,0-.33,0-.5-.02h-.02c-.16,0-.33-.02-.49-.05-.07,0-.14-.01-.21-.03-.07,0-.14-.02-.21-.03-.12-.02-.23-.04-.35-.07-.12-.02-.23-.05-.35-.08-.62-.15-1.24-.34-1.85-.55v-2.56s.03-3.77.03-3.77v-2.49c.21.04.41.09.62.15.22.05.44.11.66.16.13.03.27.07.4.1.23.06.46.13.69.19.3.08.59.17.89.26,1.06.32,2.18.79,3.13,1.43,1.45.96,2.49,2.28,2.29,3.94Z"/>
        <path class="cls-2" d="m91.63,124.95c-.71-.36-1.42-.7-2.15-1.03-.63-.29-1.28-.57-1.92-.84-.76-.31-1.52-.6-2.28-.88,3.2-5.79,4.38-12.85,1.82-18.89-1.93-4.54-10.16-10.75-9.63-15.75.89-8.34,9.96,1.44,11.65,4.07,6.3,9.76,6.93,22.64,2.5,33.31Z"/>
        <path class="cls-2" d="m124.73,185.16c-.08.65-.17,1.31-.27,1.96-.04.28-.08.57-.13.85-.04.27-.09.53-.13.79-.04.25-.08.49-.13.73-.03.18-.07.36-.1.54-.06.33-.13.67-.2,1.01-.08.37-.16.74-.24,1.11-.02.1-.05.19-.07.29-.07.29-.14.57-.2.85,0,.04-.02.09-.03.13-.09.38-.19.77-.3,1.14-.08.29-.16.57-.24.85,0,.02-.01.04-.02.07-.04.15-.08.29-.13.44-.1.34-.2.68-.31,1.02-.11.33-.22.67-.34,1-.03.09-.06.18-.09.27-.12.34-.25.69-.38,1.04-.15.38-.3.76-.45,1.14-6.63,16.07-23.5,27.33-40.88,27.3s-34.21-11.37-40.77-27.46c-2.1-5.13-3.1-10.66-3.1-16.19,0-.36,0-.73.01-1.09v-.11c0-.34.02-.69.04-1.03,0-.16.02-.32.03-.48,0-.19.02-.38.03-.56,0-.12.02-.24.03-.35.02-.33.06-.67.09-1.01.04-.39.08-.77.13-1.16.04-.32.09-.65.14-.98,0-.09.02-.18.04-.27.05-.35.11-.7.17-1.05.07-.38.14-.76.22-1.14.03-.18.07-.37.12-.55.04-.18.08-.37.12-.55,0-.03.01-.07.02-.11.08-.35.17-.71.26-1.06.09-.35.18-.71.29-1.06.02-.07.04-.14.06-.21.15-.52.31-1.03.47-1.54.07-.23.15-.45.22-.67h0s0-.01,0-.02c0,0,0-.02,0-.03.09-.27.19-.53.29-.8.03-.08.06-.17.09-.25.12-.32.24-.64.37-.96.14-.36.29-.72.44-1.08.1-.24.21-.48.31-.73.11-.24.22-.48.33-.72.22-.47.45-.95.69-1.42.47-.93.98-1.86,1.53-2.75.42-.69.85-1.37,1.31-2.04.59-.87,1.22-1.72,1.88-2.55.17-.22.35-.44.54-.65.03-.04.07-.08.11-.13,0-.01.02-.02.03-.04.07-.08.14-.16.2-.24.17-.2.35-.41.53-.61.05-.05.1-.11.15-.16.18-.2.36-.4.55-.59.15-.16.3-.32.46-.48.24-.25.48-.5.73-.74,5.3-5.21,11.8-8.98,18.04-13.01,3.41-2.2,6.81-4.53,9.87-7.19.94.2,1.87.45,2.79.74,1.08.33,2.14.72,3.18,1.15.78.33,1.55.68,2.31,1.07-.47.53-.97,1.05-1.49,1.55-8.37,8.07-20.24,11.64-28.78,19.52-.21.19-.42.39-.62.59-.01.01-.03.03-.04.04-.12.11-.23.22-.34.34-.41.41-.81.83-1.2,1.26-.13.13-.24.26-.35.4-.02.03-.05.06-.08.09-.18.21-.36.42-.54.63-.68.81-1.32,1.66-1.91,2.53-.46.66-.9,1.35-1.31,2.04-.54.9-1.04,1.82-1.5,2.77-.14.28-.27.57-.4.85-.04.09-.08.18-.12.27-.14.3-.26.59-.39.89-.13.3-.25.6-.36.9-.03.08-.06.16-.09.24-.12.3-.22.59-.33.89,0,.02-.01.04-.02.06-.01.03-.02.07-.03.1-.02.06-.04.11-.06.17,0,.03-.02.05-.03.08t0,0c-.08.21-.15.44-.22.65-.1.31-.2.62-.29.94-.02.06-.03.12-.05.17-.01.05-.03.09-.04.14-.01.04-.02.08-.03.12,0,.02-.01.04-.02.07,0,.01,0,.02,0,.04,0,.02-.01.05-.02.08-.06.18-.11.37-.16.56-.09.36-.18.72-.26,1.08-.07.26-.13.52-.17.78,0,.02,0,.05-.01.08-.04.15-.07.31-.1.46-.04.21-.08.42-.12.63-.02.09-.03.18-.05.28,0,.03,0,.07-.02.1-.05.31-.1.61-.14.92-.05.33-.09.65-.13.98-.01.12-.03.24-.04.35-.03.29-.06.57-.08.86-.02.18-.03.37-.04.56,0,.04,0,.07,0,.11,0,.02,0,.03,0,.05,0,.02,0,.05,0,.08,0,.01,0,.03,0,.05-.01.17-.02.34-.03.51-.02.33-.03.66-.04.98,0,.33-.01.66-.01.99,0,.35,0,.71.02,1.07,0,.05,0,.09,0,.14,0,.18,0,.37.02.55,0,.18.01.37.03.55,0,.11.01.21.02.32.01.15.02.3.04.45,0,.13.02.26.03.39.02.18.03.37.05.55.02.18.04.36.07.55,0,.02,0,.04,0,.06.02.16.04.31.06.46.05.37.11.75.17,1.11.03.18.06.38.1.56h0s0,.02,0,.03c.03.16.06.31.09.48.07.33.14.67.22,1,.04.19.09.38.14.57.07.27.14.53.21.79.07.26.15.52.22.78.08.26.16.52.24.77.08.23.15.47.24.7,0,0,0,.01,0,.02.01.05.03.09.05.14.08.23.16.46.25.68,5.23,13.77,19.32,23.68,34.04,23.95,14.72.27,29.17-9.11,34.9-22.67.06-.15.13-.31.19-.47.06-.16.13-.31.19-.47.02-.04.03-.08.05-.12.12-.31.23-.62.34-.93.12-.33.24-.67.35-1.01.11-.33.22-.67.32-1.01.09-.29.17-.58.25-.87.11-.36.2-.72.29-1.08,0-.03.01-.07.02-.1.1-.39.19-.78.28-1.18h0c.05-.23.1-.46.15-.68.01-.06.02-.12.04-.18l2.75-1.57,2.3-1.31,2.65-1.52Z"/>
        <path class="cls-2" d="m166.87,106.8v2.44s-.02,2.66-.02,2.66v2.43c-.74.02-1.46.07-2.19.14-.24.01-.48.04-.72.07-.34.03-.68.07-1.01.12-.34.04-.67.09-1.01.15-.22.03-.45.07-.67.11-.14.02-.27.05-.4.08-.25.04-.49.09-.74.15-.32.06-.63.13-.95.2-.32.07-.63.15-.94.23-.63.16-1.25.33-1.87.52-.31.09-.62.19-.93.29-.31.1-.62.2-.92.31-.3.1-.59.21-.89.32-.31.12-.63.24-.93.36-.31.12-.61.25-.9.38-.3.13-.6.26-.89.4-.21.1-.43.2-.64.3-.02.01-.04.02-.07.03-.09.04-.17.08-.26.13,0,0,0,0,0,0-.13.07-.26.13-.39.19s-.26.13-.38.19c-.29.15-.58.3-.86.46-.28.15-.56.31-.83.46-.01,0-.03.01-.05.03-.24.14-.49.28-.73.43-.06.03-.13.07-.18.11-.19.12-.39.24-.58.36-.53.33-1.05.68-1.56,1.03-.21.15-.42.3-.63.45-.06.04-.12.08-.17.12-.22.16-.44.32-.65.49-.18.14-.36.27-.54.42h0c-.17.14-.34.28-.52.42-.21.17-.43.35-.63.53-.17.14-.33.29-.5.43-.02.02-.04.03-.06.05-.19.16-.38.33-.57.51-.13.12-.26.24-.39.36-.25.23-.49.47-.73.7-.93.92-1.81,1.89-2.64,2.9-.88,1.07-1.7,2.18-2.45,3.34-.66,1.02-1.27,2.07-1.83,3.16,0,0,0,0,0,0-.71,1.39-1.33,2.8-1.87,4.23-.6,1.55-1.1,3.14-1.53,4.74h0c-.12.45-.23.89-.34,1.33-.08.34-.16.68-.24,1.03-.05.23-.11.46-.15.7-.02.1-.04.19-.06.29-.04.2-.08.4-.12.6-.05.27-.1.53-.15.79-.2,1.08-.37,2.18-.53,3.28-.03.25-.07.5-.1.75-.06.47-.12.94-.17,1.42-.05.4-.09.8-.13,1.21-.05.48-.09.97-.14,1.46-.05.55-.09,1.09-.14,1.65-.03.47-.07.95-.1,1.42-.04.63-.08,1.25-.11,1.88-.03.55-.06,1.1-.09,1.66-.05.98-.09,1.97-.14,2.95l-2.48,1.42-2.53,1.44-2.43,1.39c0-1.11,0-2.23.01-3.35,0-.92,0-1.84.02-2.75,0-.56,0-1.12.02-1.68,0-.46.01-.92.02-1.37,0-.32.01-.64.02-.96,0-.32.01-.64.03-.96,0-.06,0-.11,0-.17.02-.58.04-1.17.07-1.75.02-.43.05-.87.08-1.3.04-.62.08-1.24.14-1.85.02-.31.05-.62.08-.92s.06-.62.09-.92.07-.61.1-.92c.07-.61.16-1.22.25-1.83.04-.31.09-.61.14-.91.04-.29.1-.57.15-.85.03-.19.07-.38.11-.58.07-.37.15-.75.23-1.12,1.25-5.86,3.58-11.47,6.78-16.55h0c.17-.27.33-.53.51-.79.19-.3.39-.59.59-.88.2-.3.41-.59.62-.88.03-.05.07-.09.1-.14.08-.12.16-.23.25-.34.08-.12.16-.23.26-.34h0s.07-.1.1-.14c.02-.03.04-.06.07-.09.01-.02.03-.05.05-.07h0c.87-1.16,1.79-2.28,2.76-3.35h0c.93-1.05,1.91-2.06,2.93-3.02,1.09-1.04,2.22-2.03,3.4-2.96,1.2-.96,2.45-1.86,3.73-2.7.65-.43,1.31-.84,1.99-1.24.43-.26.87-.5,1.3-.74.16-.09.31-.17.47-.26.17-.09.34-.18.51-.27.23-.12.46-.24.69-.35.24-.12.49-.25.74-.36.06-.03.13-.06.19-.09.18-.09.37-.17.56-.26,0,0,.02,0,.03-.01.24-.11.48-.22.73-.33.1-.04.2-.08.3-.13.39-.17.79-.34,1.19-.5.16-.07.33-.13.49-.19.4-.16.81-.31,1.22-.46.03,0,.06-.02.1-.03.43-.16.86-.31,1.29-.45.22-.07.44-.15.66-.21.22-.07.44-.14.66-.2.44-.14.89-.26,1.33-.38.39-.1.78-.2,1.17-.3.05-.01.09-.03.14-.04.4-.1.8-.19,1.21-.28.2-.05.4-.09.61-.13.2-.04.41-.08.61-.12.19-.04.39-.07.58-.11.49-.09.99-.17,1.48-.25,0,0,0,0,.01,0,.49-.07.98-.14,1.47-.2.25-.03.5-.06.75-.09.28-.03.56-.06.84-.09.24-.02.47-.04.7-.06.23-.02.47-.03.7-.05Z"/>
      </g>
      <g>
        <path class="cls-2" d="m77.71,63.22h0c.15-.2.3-.41.45-.61-.14.2-.29.41-.44.61Z"/>
        <path class="cls-2" d="m77.7,63.22h0c.15-.2.3-.41.44-.61-.15.2-.3.41-.45.61Zm0,0h0c.15-.2.3-.41.44-.61-.15.2-.3.41-.45.61Zm0,0h0c.15-.2.3-.41.44-.61-.15.2-.3.41-.45.61Z"/>
        <path class="cls-2" d="m77.7,63.22c-2.13,2.86-4.67,5.42-7.55,7.52-6.12,4.48-13.48,6.92-20.81,8.89-6.08,1.63-12.28,3-18.19,5.17v-2.58s.02-1.92.02-1.92v-2.57c.25-.08.49-.16.73-.24,8.49-2.85,17.24-5.06,25.28-8.98,3.63-1.77,7.14-3.95,10.24-6.56.96.27,1.93.49,2.91.67.54.1,1.09.19,1.64.26.9.12,1.8.21,2.71.26,1,.06,2.01.09,3.02.07Z"/>
        <path class="cls-2" d="m108.57,149.53c-1.39.87-3.28.43-4.58-.57-1.3-1-2.16-2.45-3.08-3.8-3.05-4.49-7.1-8.25-11.75-11.04-.7-.43-1.41-.82-2.14-1.2-.73-.38-1.48-.74-2.23-1.07-.95-.42-1.92-.8-2.91-1.14-.86-.3-1.73-.57-2.61-.8-.94-.26-1.89-.47-2.84-.65-1.7-.32-3.43-.52-5.16-.59-9.32-.38-18.39,2.68-27.43,4.96-4.21,1.06-8.57,1.93-12.92,2.23-1.05.07-2.1.11-3.15.1-1.06,0-2.1-.05-3.14-.15-.81-.07-1.62-.17-2.42-.31-1.06-.17-2.11-.4-3.15-.69-.93-.26-1.84-.57-2.74-.93-.14-.05-.27-.11-.41-.17-7.96-3.34-14.01-10.91-15.5-19.41-2.34-13.47,5.45-23.04,15.72-29.51v2.85s-.02,2.69-.02,2.69v3.22c-2.23,2.06-4.14,4.43-5.58,7.11-3.57,6.69-3.61,15.59,1.25,21.41,1.2,1.43,2.6,2.6,4.16,3.54.99.6,2.04,1.1,3.14,1.52,2.72,1.03,5.7,1.53,8.71,1.6,1.05.02,2.1,0,3.15-.08,1.02-.07,2.03-.19,3.03-.35,7.94-1.26,15.41-4.61,23.3-6.13,8.06-1.55,16.43-.99,24.29,1.37.81.24,1.61.5,2.41.78.78.28,1.56.57,2.33.88.73.3,1.45.61,2.17.93.73.33,1.45.68,2.16,1.04.73.37,1.44.76,2.14,1.16,5.83,3.31,11.02,7.72,15.12,13.04,1.88,2.45,3.3,6.52.68,8.18Z"/>
        <path class="cls-2" d="m84.84,44.72c-.18,2.07-.56,4.12-1.1,6.12-.88.2-1.76.36-2.66.48-.85.12-1.7.2-2.57.24-.89.04-1.78.04-2.68,0,.18-.35.35-.72.51-1.08,1.71-3.86,2.36-8.26,1.87-12.45-.13-1.11-.33-2.2-.62-3.27-.28-1.03-.64-2.04-1.08-3.01-.33-.74-.71-1.45-1.14-2.14-.56-.9-1.2-1.74-1.91-2.53-.42-.46-.87-.9-1.35-1.32-.36-.31-.73-.61-1.11-.9-1.56-1.22-3.23-2.33-4.41-3.9-.82-1.1-1.32-2.55-1.28-3.9.03-1.06.4-2.06,1.2-2.78,2.42-2.17,6.23-.09,8.47,2.25,1.23,1.29,2.35,2.67,3.37,4.13.6.86,1.17,1.75,1.69,2.66.52.91,1.01,1.84,1.45,2.79.34.74.66,1.48.96,2.24.39.99.74,2.01,1.04,3.03.31,1.05.57,2.11.78,3.18.67,3.34.87,6.76.57,10.15Z"/>
      </g>
    </g>
  </g>
</svg>